# xmcd
#
# Track frame offsets: 
#        150
#        18177
#        33532
#        51540
#        69700
#        86212
#
# Disc length: 1361 seconds
#
# Revision: 1
# Processed by: cddbd v1.4PL0 Copyright (c) Steve Scherf et al.
# Submitted via: ExactAudioCopy v0.90b4
#
DISCID=51054f06
DTITLE=Adam Brand - Adam Brand (Bonus Live Tracks)
DYEAR=1900
DGENRE=Country
TTITLE0=Uncle Pete
TTITLE1=Charleville
TTITLE2=Never Live Without You
TTITLE3=Size Two Boots
TTITLE4=T Bird
TTITLE5=T.R.O.U.B.L.E.
EXTD=
EXTT0=
EXTT1=
EXTT2=
EXTT3=
EXTT4=
EXTT5=
PLAYORDER=
